<svg width="205" height="50">
 <g font-family="Arial" font-weight="bold" font-size="66.5">
  <text fill="#00BB00" x="0" y="0"  transform="matrix(0.53,0,0,0.000982890530326457,2,49)">A</text>
  <text fill="#0000EE" x="0" y="0"  transform="matrix(0.59,0,0,0.000982890530326457,0,48.9508554734837)">C</text>
  <text fill="#DD0000" x="0" y="0"  transform="matrix(0.65,0,0,0.000982890530326457,-1.5,48.9017109469674)">U</text>
  <text fill="#F9A500" x="0" y="0"  transform="matrix(0.55,0,0,0.979941858735478,0,48.852566420451)">G</text>
  
  <text fill="#00BB00" x="0" y="0"  transform="matrix(0.53,0,0,0.000982890530326457,27,49)">A</text>
  <text fill="#F9A500" x="0" y="0"  transform="matrix(0.55,0,0,0.000982890530326457,25,48.9508554734837)">G</text>
  <text fill="#DD0000" x="0" y="0"  transform="matrix(0.65,0,0,0.000982890530326457,23.5,48.9017109469674)">U</text>
  <text fill="#0000EE" x="0" y="0"  transform="matrix(0.59,0,0,0.979941858735478,25,48.852566420451)">C</text>
  
  <text fill="#0000EE" x="0" y="0"  transform="matrix(0.59,0,0,0.000982890530326457,50,49)">C</text>
  <text fill="#F9A500" x="0" y="0"  transform="matrix(0.55,0,0,0.000982890530326457,50,48.9508554734837)">G</text>
  <text fill="#DD0000" x="0" y="0"  transform="matrix(0.65,0,0,0.000982890530326457,48.5,48.9017109469674)">U</text>
  <text fill="#00BB00" x="0" y="0"  transform="matrix(0.53,0,0,0.979941858735478,52,48.852566420451)">A</text>
  
  <text fill="#F9A500" x="0" y="0"  transform="matrix(0.55,0,0,0.00050690723293698,75,49)">G</text>
  <text fill="#DD0000" x="0" y="0"  transform="matrix(0.65,0,0,0.00050690723293698,73.5,48.9746546383532)">U</text>
  <text fill="#0000EE" x="0" y="0"  transform="matrix(0.59,0,0,0.197693820845422,75,48.9493092767063)">C</text>
  <text fill="#00BB00" x="0" y="0"  transform="matrix(0.53,0,0,0.308199597625684,77,39.0646182344352)">A</text>
  
  <text fill="#00BB00" x="0" y="0"  transform="matrix(0.53,0,0,0.000805735945001224,102,49)">A</text>
  <text fill="#0000EE" x="0" y="0"  transform="matrix(0.59,0,0,0.000805735945001224,100,48.9597132027499)">C</text>
  <text fill="#F9A500" x="0" y="0"  transform="matrix(0.55,0,0,0.0564015161500857,100,48.9194264054999)">G</text>
  <text fill="#DD0000" x="0" y="0"  transform="matrix(0.65,0,0,0.747722956961136,98.5,46.0993505979956)">U</text>
  
  <text fill="#0000EE" x="0" y="0"  transform="matrix(0.59,0,0,0.00050690723293698,125,49)">C</text>
  <text fill="#F9A500" x="0" y="0"  transform="matrix(0.55,0,0,0.00050690723293698,125,48.9746546383532)">G</text>
  <text fill="#DD0000" x="0" y="0"  transform="matrix(0.65,0,0,0.197693820845422,123.5,48.9493092767063)">U</text>
  <text fill="#00BB00" x="0" y="0"  transform="matrix(0.53,0,0,0.308199597625684,127,39.0646182344352)">A</text>
  
  <text fill="#0000EE" x="0" y="0"  transform="matrix(0.59,0,0,0.000951561828645827,150,49)">C</text>
  <text fill="#F9A500" x="0" y="0"  transform="matrix(0.55,0,0,0.000951561828645827,150,48.9524219085677)">G</text>
  <text fill="#00BB00" x="0" y="0"  transform="matrix(0.53,0,0,0.00856405645781244,152,48.9048438171354)">A</text>
  <text fill="#DD0000" x="0" y="0"  transform="matrix(0.65,0,0,0.941094648530723,148.5,48.4766409942448)">U</text>
  
  <text fill="#F9A500" x="0" y="0"  transform="matrix(0.55,0,0,0.00563959075530818,175,49)">G</text>
  <text fill="#0000EE" x="0" y="0"  transform="matrix(0.59,0,0,0.0148730383644892,175,48.7180204622346)">C</text>
  <text fill="#00BB00" x="0" y="0"  transform="matrix(0.53,0,0,0.0154259394189312,177,47.9743685440101)">A</text>
  <text fill="#DD0000" x="0" y="0"  transform="matrix(0.65,0,0,0.0193515369054693,173.5,47.2030715730636)">U</text>
  
 </g>
</svg>
